<?xml version="1.0" standalone="no"?>
<!DOCTYPE svg PUBLIC "-//W3C//DTD SVG 20010904//EN"
 "http://www.w3.org/TR/2001/REC-SVG-20010904/DTD/svg10.dtd">
<svg version="1.0" xmlns="http://www.w3.org/2000/svg"
 width="4000.000000pt" height="3000.000000pt" viewBox="0 0 4000.000000 3000.000000"
 preserveAspectRatio="xMidYMid meet">
<metadata>
Created by potrace 1.15, written by Peter Selinger 2001-2017
</metadata>
<g transform="translate(0.000000,3000.000000) scale(0.100000,-0.100000)"
fill="#000000" stroke="none">
<path d="M10930 29613 c-615 -11 -1210 -56 -1720 -129 -149 -21 -407 -63 -460
-74 -25 -5 -85 -17 -135 -26 -322 -59 -818 -180 -1130 -276 -321 -98 -804
-269 -980 -347 -11 -5 -114 -51 -230 -101 -332 -146 -689 -329 -990 -507
-1168 -694 -2083 -1574 -2738 -2635 -359 -580 -668 -1320 -817 -1953 -11 -49
-27 -117 -35 -150 -13 -58 -51 -260 -74 -395 -117 -692 -118 -1515 -5 -2265
325 -2149 1623 -3905 3864 -5227 80 -47 168 -98 195 -113 28 -15 84 -47 125
-70 183 -102 556 -293 785 -400 122 -57 565 -255 571 -255 5 0 67 -26 119 -50
11 -5 81 -34 155 -63 74 -30 225 -94 335 -142 110 -49 256 -112 325 -142 69
-30 139 -61 155 -68 91 -41 152 -68 206 -90 33 -14 88 -38 122 -54 34 -16 107
-48 162 -71 55 -23 133 -58 173 -76 41 -19 75 -34 77 -34 2 0 63 -27 137 -59
73 -33 320 -141 548 -241 228 -100 438 -192 465 -205 28 -12 95 -42 150 -65
55 -23 127 -55 160 -70 33 -15 105 -47 160 -70 55 -23 128 -55 162 -71 34 -16
89 -40 122 -54 57 -24 127 -54 216 -95 22 -10 68 -30 103 -44 34 -15 93 -40
130 -57 37 -17 364 -157 727 -311 569 -242 748 -319 995 -430 44 -20 100 -46
285 -131 256 -118 789 -393 913 -471 23 -14 44 -26 47 -26 8 0 217 -131 355
-223 163 -109 291 -203 427 -314 56 -46 105 -83 110 -82 4 0 31 26 58 58 42
48 570 633 1120 1240 77 85 163 180 190 211 28 31 131 146 230 255 99 109 225
249 280 310 55 61 179 199 276 305 97 107 224 249 284 315 60 66 188 207 284
314 97 106 186 205 198 220 11 14 23 24 26 21 2 -3 10 -108 16 -235 25 -476
72 -1065 111 -1380 5 -44 19 -156 30 -250 35 -284 78 -565 141 -925 34 -194
59 -320 124 -635 72 -353 195 -834 325 -1270 124 -415 352 -1076 445 -1290 8
-16 41 -97 75 -180 34 -82 69 -168 79 -190 10 -22 31 -69 46 -105 15 -36 44
-101 64 -145 21 -44 50 -109 66 -145 42 -93 284 -575 351 -700 848 -1576 1961
-2896 3307 -3923 445 -340 874 -619 1427 -927 117 -65 499 -259 635 -322 935
-434 1890 -736 2915 -922 185 -34 262 -46 430 -70 1537 -220 3131 -172 4560
138 468 102 908 228 1410 404 175 62 520 202 790 323 260 115 906 459 1137
605 32 20 87 55 123 78 136 85 461 307 610 416 485 354 911 721 1366 1175 335
334 754 791 754 823 0 7 -145 169 -323 360 -178 191 -476 511 -662 712 -187
201 -515 554 -730 785 -214 230 -462 497 -550 593 l-160 173 -109 -118 c-283
-306 -712 -720 -1011 -974 -535 -455 -1114 -838 -1690 -1119 -267 -130 -286
-138 -503 -224 -946 -376 -1940 -539 -3022 -497 -1392 55 -2611 403 -3720
1064 -1043 622 -1956 1539 -2642 2657 -257 419 -448 783 -645 1230 -30 69 -60
139 -68 155 -121 273 -321 835 -430 1205 -54 182 -155 563 -194 730 -285 1210
-421 2459 -421 3865 0 1088 96 2202 265 3075 55 286 76 390 85 425 5 22 23
103 41 180 88 390 224 871 347 1233 22 62 35 111 31 110 -5 -2 -102 -107 -216
-233 -332 -369 -736 -817 -1028 -1140 -149 -165 -437 -484 -640 -710 -203
-225 -455 -505 -560 -621 -104 -116 -266 -295 -360 -399 -93 -104 -256 -284
-360 -399 -105 -116 -355 -393 -555 -616 -201 -223 -532 -589 -735 -815 -203
-225 -430 -477 -504 -560 -74 -82 -161 -178 -193 -212 -32 -34 -64 -76 -71
-92 l-13 -31 -60 46 c-441 344 -960 675 -1579 1009 -94 51 -621 315 -628 315
-3 0 -56 24 -118 54 -110 52 -353 160 -394 176 -11 4 -41 17 -65 28 -70 32
-338 143 -524 217 -93 37 -201 82 -240 100 -39 18 -99 44 -133 59 -35 14 -86
37 -115 50 -29 13 -168 75 -308 136 -140 62 -279 123 -308 136 -29 13 -79 35
-112 49 -33 14 -83 36 -112 49 -29 13 -109 49 -178 79 -176 77 -541 238 -698
308 -74 32 -135 59 -137 59 -2 0 -36 15 -77 34 -40 18 -101 45 -135 60 -35 14
-86 37 -115 50 -29 13 -152 68 -273 121 -121 53 -244 108 -273 121 -29 13 -80
35 -113 49 -33 14 -89 39 -124 55 -35 16 -91 41 -124 55 -33 14 -87 37 -118
51 -109 50 -288 126 -388 164 -591 226 -1354 535 -1632 660 -998 452 -1560
789 -2068 1241 -549 488 -895 1073 -1020 1723 -43 226 -50 316 -50 631 0 333
11 453 61 704 172 856 649 1557 1409 2070 383 259 864 480 1340 616 33 9 80
23 105 30 38 12 206 53 345 85 291 67 688 121 1095 150 370 26 1078 21 1475
-11 291 -23 647 -61 790 -84 17 -3 100 -16 185 -30 1484 -237 2843 -805 4131
-1726 207 -148 406 -300 632 -482 111 -90 202 -156 206 -151 5 5 98 119 207
254 109 135 254 315 323 400 69 85 215 265 324 400 109 135 276 342 372 460
96 118 301 373 457 565 156 193 341 422 412 509 l129 160 -129 125 c-682 665
-1635 1359 -2549 1856 -116 63 -583 298 -680 342 -49 23 -124 57 -165 76 -274
126 -736 310 -1050 418 -1225 423 -2473 658 -3760 709 -322 12 -491 16 -650
13z"/>
<path d="M31654 29293 c-137 -153 -400 -444 -584 -648 -184 -203 -458 -508
-609 -676 -152 -168 -478 -530 -726 -804 -247 -275 -533 -592 -635 -705 -102
-113 -266 -295 -365 -405 -99 -109 -225 -249 -280 -310 -250 -278 -370 -411
-379 -417 -6 -4 -8 -10 -4 -13 3 -4 73 18 155 48 81 30 209 74 283 96 74 23
158 49 185 58 93 29 429 111 580 142 656 134 1343 190 2014 163 305 -12 382
-18 671 -53 459 -56 925 -160 1356 -304 146 -49 352 -124 403 -147 25 -11 61
-26 80 -33 20 -7 63 -25 96 -40 33 -15 114 -52 180 -82 739 -336 1520 -887
2194 -1548 l193 -190 68 75 c37 41 586 651 1219 1355 l1152 1280 -263 261
c-344 340 -648 609 -1005 886 -852 662 -1765 1188 -2738 1578 -612 245 -1295
446 -1930 566 -296 56 -749 120 -985 140 l-75 6 -251 -279z"/>
<path d="M2664 7357 c-66 -78 -327 -385 -580 -681 -556 -654 -808 -949 -1104
-1297 -448 -527 -693 -814 -711 -834 -18 -20 -16 -23 159 -186 901 -844 1910
-1575 2952 -2142 41 -22 111 -60 155 -85 240 -132 894 -444 1185 -566 258
-107 349 -143 567 -225 305 -115 950 -331 987 -331 6 0 81 78 167 173 86 94
306 339 490 542 184 204 438 484 564 624 127 140 275 305 330 366 55 61 179
199 276 305 97 107 310 344 474 525 164 182 378 419 476 527 99 108 179 201
179 205 0 5 -75 21 -167 37 -251 41 -497 92 -758 155 -474 114 -987 275 -1430
447 -260 102 -527 216 -780 334 -93 43 -507 250 -520 259 -5 5 -53 31 -105 58
-848 450 -1768 1107 -2539 1811 -74 67 -137 122 -140 122 -3 -1 -60 -65 -127
-143z"/>
</g>
</svg>
